<svg xmlns="http://www.w3.org/2000/svg"><symbol id="location" viewBox="0 0 426.7 426.7"><path d="M213.3 0C130.9 0 64 66.9 64 149.3c0 112 149.3 277.3 149.3 277.3s149.3-165.3 149.3-277.3C362.7 66.9 295.8 0 213.3 0zM213.3 202.7c-29.4 0-53.3-23.9-53.3-53.3S183.9 96 213.3 96s53.3 23.9 53.3 53.3S242.8 202.7 213.3 202.7z"/></symbol><symbol id="test-drive" viewBox="0 0 20 20"><circle cx="10" cy="10.7" r="1.6"/><path d="M10 0C4.5 0 0 4.5 0 10c0 5.5 4.5 10 10 10 5.5 0 10-4.5 10-10C20 4.5 15.5 0 10 0zM10 1.6c3.6 0 6.6 2.2 7.8 5.4 0 0.4-0.1 1-0.6 1.1 -2 0.8-3.7-0.9-7.3-0.9C6.2 7.2 4.6 8.9 2.6 8.1 2.3 8 2.1 7.7 2 7.4 3.1 4.1 6.3 1.6 10 1.6zM12.2 10.7c0 1.2-1 2.2-2.2 2.2s-2.2-1-2.2-2.2c0-1.2 1-2.2 2.2-2.2S12.2 9.5 12.2 10.7zM4.2 15.3c-0.3 0.1-0.5 0-0.8-0.2 -0.9-1.2-1.5-2.7-1.7-4.3 0.2-0.2 0.6-0.3 1.1-0.2C3.9 11.1 5.3 14.8 4.2 15.3zM13 17.8c-0.1 0-0.1 0.1-0.1 0.1 -0.9 0.3-1.8 0.5-2.8 0.5 -1.1 0-2.2-0.2-3.2-0.6 -1.1-0.8-0.6-1.4-0.1-2.4 0.6-1 3.1-0.7 3.1-0.7s2.6-0.3 3.2 0.7C13.6 16.3 14.1 17 13 17.8zM17.1 14.5c-0.4 0.5-0.9 1.1-1.4 0.8 -1.1-0.5 0.3-4.2 1.4-4.6 0.6-0.2 1 0 1.2 0.4C18.1 12.3 17.7 13.5 17.1 14.5z"/></symbol></svg>